<?xml version="1.0" standalone="no"?>
<!DOCTYPE svg PUBLIC "-//W3C//DTD SVG 20010904//EN"
 "http://www.w3.org/TR/2001/REC-SVG-20010904/DTD/svg10.dtd">
<svg version="1.0" xmlns="http://www.w3.org/2000/svg"
 width="700.000000pt" height="700.000000pt" viewBox="0 0 700.000000 700.000000"
 preserveAspectRatio="xMidYMid meet">
<metadata>
Created by potrace 1.11, written by Peter Selinger 2001-2013
</metadata>
<g transform="translate(0.000000,700.000000) scale(0.100000,-0.100000)"
fill="#000000" stroke="none">
<path d="M3278 6900 c-70 -12 -149 -40 -142 -51 3 -5 11 -9 19 -9 27 0 291
-92 370 -129 44 -21 136 -73 205 -116 163 -102 255 -144 421 -193 156 -46 236
-61 225 -43 -5 7 -58 49 -119 95 -62 45 -152 118 -202 160 -213 185 -355 260
-538 285 -88 12 -169 13 -239 1z"/>
<path d="M2681 6819 c-80 -14 -185 -53 -244 -91 l-52 -33 65 -7 c36 -4 115
-12 175 -18 160 -17 230 -33 425 -99 96 -33 216 -67 267 -75 105 -19 402 -26
404 -11 1 5 -57 36 -127 67 -71 31 -142 64 -159 74 -113 63 -293 146 -365 169
-70 22 -108 28 -210 31 -69 1 -149 -1 -179 -7z"/>
<path d="M4580 6653 c142 -120 296 -289 395 -433 113 -164 216 -277 357 -391
103 -82 136 -104 145 -95 3 3 -26 61 -65 128 -39 68 -96 177 -127 243 -108
230 -204 360 -329 449 -123 88 -273 146 -375 146 l-56 0 55 -47z"/>
<path d="M5180 6404 c0 -3 24 -36 54 -73 67 -84 169 -238 206 -311 15 -30 49
-107 75 -170 70 -172 120 -263 216 -390 90 -119 169 -204 169 -181 0 7 -18 70
-40 139 -22 70 -56 190 -75 267 -54 227 -103 340 -198 463 -75 99 -225 208
-334 243 -59 20 -73 22 -73 13z"/>
<path d="M1700 6336 c-156 -33 -292 -103 -404 -207 -76 -71 -137 -159 -100
-145 216 83 406 131 574 145 252 22 328 37 510 104 118 44 187 75 195 87 7 12
16 11 -170 14 -82 1 -238 5 -345 9 -150 5 -210 3 -260 -7z"/>
<path d="M1790 6044 c-58 -14 -179 -36 -270 -50 -272 -41 -390 -77 -505 -154
-80 -53 -190 -162 -236 -233 -40 -61 -76 -144 -66 -153 2 -3 38 16 77 41 122
78 310 171 410 203 52 17 140 45 195 62 114 37 213 85 335 161 124 78 180 121
180 136 0 16 7 17 -120 -13z"/>
<path d="M6220 5465 c0 -4 9 -41 19 -83 51 -202 62 -301 65 -595 3 -277 3
-284 34 -404 38 -152 71 -253 83 -253 12 0 16 25 30 160 6 63 22 174 36 245
16 83 27 181 30 270 5 122 3 152 -17 228 -35 142 -101 269 -184 355 -43 46
-96 88 -96 77z"/>
<path d="M879 5129 c-52 -39 -157 -110 -234 -159 -77 -49 -170 -114 -207 -145
-186 -153 -304 -388 -296 -589 l3 -76 87 123 c126 176 183 241 318 357 159
136 235 218 318 342 110 165 138 218 114 218 -5 0 -51 -32 -103 -71z"/>
<path d="M2710 4960 l0 -80 60 0 60 0 0 -200 0 -200 85 0 85 0 0 200 0 200 60
0 60 0 0 80 0 80 -205 0 -205 0 0 -80z"/>
<path d="M3270 4760 l0 -280 80 0 79 0 3 103 3 102 63 3 62 3 0 -106 0 -105
85 0 85 0 0 280 0 280 -85 0 -85 0 0 -100 0 -100 -65 0 -65 0 0 100 0 100 -80
0 -80 0 0 -280z"/>
<path d="M3910 4760 l0 -280 185 0 185 0 0 75 0 75 -100 0 -100 0 0 35 0 35
90 0 90 0 0 70 0 70 -90 0 c-89 0 -90 0 -90 25 0 25 0 25 95 25 l95 0 0 75 0
75 -180 0 -180 0 0 -280z"/>
<path d="M6574 4632 c0 -201 -3 -226 -28 -332 -75 -315 -78 -338 -73 -555 4
-181 14 -265 29 -239 3 5 22 61 43 124 20 63 66 188 101 276 94 237 108 293
107 449 0 111 -4 143 -27 220 -31 103 -85 211 -124 248 l-27 26 -1 -217z"/>
<path d="M589 4554 c-53 -60 -144 -154 -201 -209 -183 -175 -267 -297 -318
-460 -38 -121 -38 -406 0 -430 4 -3 24 36 44 85 78 194 145 314 268 477 87
115 135 191 178 278 72 147 132 308 128 343 -3 23 -12 15 -99 -84z"/>
<path d="M4735 4217 c-162 -54 -273 -188 -298 -360 -40 -278 210 -523 486
-477 255 42 414 303 337 553 -23 73 -87 167 -143 210 -76 58 -144 81 -247 84
-59 2 -110 -2 -135 -10z m226 -187 c86 -44 135 -139 127 -248 -6 -76 -22 -115
-70 -162 -87 -88 -215 -93 -308 -12 -52 44 -81 101 -87 171 -7 72 9 129 50
183 71 92 186 120 288 68z"/>
<path d="M1110 3805 l0 -415 193 0 c164 0 198 3 232 19 97 44 155 131 155 233
0 67 -28 137 -68 168 l-25 20 20 23 c41 45 56 87 50 147 -6 68 -25 107 -73
154 -58 56 -102 66 -306 66 l-178 0 0 -415z m359 219 c24 -30 26 -43 10 -77
-16 -34 -49 -47 -124 -47 l-65 0 0 75 0 75 79 0 c74 0 81 -2 100 -26z m12
-313 c50 -50 33 -127 -33 -150 -17 -6 -60 -11 -94 -11 l-64 0 0 95 0 95 81 0
c76 0 82 -2 110 -29z"/>
<path d="M1880 3806 l0 -416 90 0 90 0 0 110 0 110 73 0 c120 0 177 -53 177
-162 l0 -58 91 0 92 0 -5 83 c-5 91 -26 142 -77 191 l-31 30 39 40 c57 58 75
111 69 199 -8 116 -68 206 -174 258 -46 22 -62 24 -241 27 l-193 4 0 -416z
m366 225 c34 -21 64 -75 64 -115 0 -43 -25 -91 -60 -116 -26 -18 -50 -24 -111
-28 l-79 -5 0 142 0 141 78 0 c58 0 85 -5 108 -19z"/>
<path d="M2680 3805 l0 -415 90 0 90 0 0 415 0 415 -90 0 -90 0 0 -415z"/>
<path d="M3548 4205 c-95 -26 -175 -90 -216 -173 -11 -20 -45 -115 -77 -211
-66 -194 -92 -234 -162 -246 -77 -13 -73 -8 -73 -102 l0 -86 65 6 c71 7 140
33 192 73 60 46 99 120 154 289 28 88 62 179 75 202 26 44 89 83 137 83 l27 0
0 90 0 90 -37 -1 c-21 0 -59 -7 -85 -14z"/>
<path d="M3800 4130 l0 -90 90 0 90 0 0 -325 0 -325 90 0 90 0 0 325 0 325 95
0 95 0 0 90 0 90 -275 0 -275 0 0 -90z"/>
<path d="M5450 3805 l0 -415 245 0 245 0 0 85 0 85 -155 0 -155 0 0 330 0 330
-90 0 -90 0 0 -415z"/>
<path d="M6836 3397 c-66 -164 -157 -333 -236 -437 -186 -243 -234 -325 -313
-540 -63 -170 -60 -184 18 -97 26 28 130 135 230 237 100 102 201 213 224 248
97 143 142 286 144 452 2 97 -15 210 -31 210 -4 0 -20 -33 -36 -73z"/>
<path d="M409 3319 c-17 -57 -60 -176 -95 -264 -106 -270 -117 -317 -117 -480
0 -123 3 -151 26 -228 33 -106 73 -188 119 -240 l33 -39 -3 164 c-4 196 7 296
53 493 50 216 60 328 47 520 -6 87 -15 162 -21 168 -6 6 -21 -27 -42 -94z"/>
<path d="M2089 3149 c-224 -24 -400 -264 -361 -489 26 -144 114 -264 237 -321
100 -47 207 -54 320 -21 l30 8 3 102 c1 56 1 102 0 102 -2 0 -30 -14 -62 -30
-73 -37 -131 -39 -202 -6 -148 69 -190 269 -83 399 70 85 197 109 293 54 27
-15 50 -27 52 -27 2 0 4 45 4 99 l0 99 -32 12 c-49 18 -136 26 -199 19z"/>
<path d="M2605 2740 c-99 -226 -181 -415 -183 -420 -2 -6 32 -10 91 -10 l94 0
31 73 30 72 123 0 123 0 29 -72 29 -73 95 0 c56 0 93 4 91 10 -14 41 -364 830
-368 830 -3 0 -86 -185 -185 -410z m213 -43 c12 -29 22 -56 22 -60 0 -4 -22
-7 -50 -7 -27 0 -50 2 -50 4 0 13 44 116 50 116 3 0 16 -24 28 -53z"/>
<path d="M3300 2725 l0 -415 193 0 c180 0 195 2 242 24 61 28 116 87 140 150
31 80 8 186 -52 242 l-25 23 25 33 c70 92 52 220 -43 300 -59 51 -95 58 -299
58 l-181 0 0 -415z m360 230 c28 -25 27 -85 -1 -111 -16 -14 -40 -20 -100 -23
l-79 -3 0 82 0 83 80 -5 c58 -3 85 -10 100 -23z m7 -310 c28 -20 46 -75 34
-106 -18 -48 -44 -61 -135 -66 l-86 -6 0 97 0 96 83 0 c57 0 89 -5 104 -15z"/>
<path d="M4070 2725 l0 -415 250 0 251 0 -3 83 -3 82 -157 3 -158 3 0 329 0
330 -90 0 -90 0 0 -415z"/>
<path d="M4730 2725 l0 -415 260 0 260 0 0 90 0 90 -170 0 -170 0 0 95 0 95
160 0 160 0 0 85 0 85 -160 0 -160 0 0 60 0 60 170 0 170 0 0 85 0 85 -260 0
-260 0 0 -415z"/>
<path d="M515 2778 c-2 -13 -9 -70 -15 -128 -6 -58 -24 -188 -41 -290 -27
-159 -31 -202 -27 -310 4 -106 10 -139 37 -220 34 -101 88 -200 146 -270 36
-43 101 -100 115 -100 4 0 -3 38 -15 83 -50 186 -65 317 -65 562 0 271 -19
401 -91 622 -23 70 -36 85 -44 51z"/>
<path d="M6737 2681 c-98 -146 -207 -271 -322 -370 -169 -146 -273 -256 -351
-371 -90 -133 -127 -197 -122 -211 2 -6 39 15 83 47 85 62 209 145 352 234 55
35 125 92 189 155 87 87 107 113 147 195 60 123 89 234 85 333 l-3 75 -58 -87z"/>
<path d="M1050 1642 c0 -5 16 -56 36 -113 20 -57 58 -189 85 -293 52 -200 97
-311 167 -412 66 -96 182 -199 285 -251 56 -28 146 -57 154 -50 2 3 -15 30
-40 60 -58 71 -166 228 -204 297 -17 30 -55 111 -83 180 -29 69 -70 161 -93
205 -77 149 -307 431 -307 377z"/>
<path d="M6146 1433 c-155 -101 -304 -170 -496 -228 -125 -38 -224 -75 -305
-116 -126 -62 -316 -184 -323 -208 -6 -17 37 -13 179 18 52 11 147 28 210 36
227 31 331 58 444 117 130 67 272 204 329 317 25 47 46 111 38 110 -4 0 -38
-21 -76 -46z"/>
<path d="M1480 1189 c0 -7 26 -58 59 -113 32 -56 94 -171 136 -256 92 -184
129 -244 203 -328 123 -141 324 -247 492 -259 47 -3 71 -2 65 4 -5 5 -53 46
-105 90 -141 119 -233 222 -344 380 -117 168 -175 235 -299 340 -143 122 -207
166 -207 142z"/>
<path d="M5665 919 c-194 -72 -332 -104 -516 -119 -246 -20 -310 -32 -491 -96
-116 -41 -204 -80 -212 -92 -3 -6 83 -12 212 -16 119 -3 270 -9 334 -12 196
-11 344 22 495 108 89 50 208 158 241 217 13 22 22 41 20 41 -2 -1 -39 -14
-83 -31z"/>
<path d="M2605 556 c17 -14 84 -66 150 -116 66 -50 169 -131 229 -180 123
-101 266 -179 381 -206 45 -11 115 -18 195 -18 106 -1 136 3 198 23 39 13 72
26 72 30 0 3 -51 21 -112 39 -185 55 -311 109 -460 199 -78 48 -183 105 -232
129 -102 48 -313 112 -396 120 l-55 5 30 -25z"/>
<path d="M3197 463 c-7 -11 26 -29 143 -78 36 -15 142 -67 235 -115 176 -92
235 -117 345 -146 83 -23 257 -23 360 0 75 16 241 91 247 112 2 7 -31 13 -99
17 -199 12 -311 34 -529 107 -114 38 -246 76 -295 84 -114 20 -398 33 -407 19z"/>
</g>
</svg>
