<?xml version="1.0" encoding="UTF-8" standalone="no"?>
<svg
   xmlns:dc="http://purl.org/dc/elements/1.1/"
   xmlns:cc="http://creativecommons.org/ns#"
   xmlns:rdf="http://www.w3.org/1999/02/22-rdf-syntax-ns#"
   xmlns:svg="http://www.w3.org/2000/svg"
   xmlns="http://www.w3.org/2000/svg"
   xmlns:xlink="http://www.w3.org/1999/xlink"
   xml:space="preserve"
   enable-background="new 0 0 425.2 425.2"
   viewBox="0 0 49.999999 49.999999"
   height="50"
   width="50"
   y="0px"
   x="0px"
   id="Layer_2"
   version="1.1"><metadata
     id="metadata83"><rdf:RDF><cc:Work
         rdf:about=""><dc:format>image/svg+xml</dc:format><dc:type
           rdf:resource="http://purl.org/dc/dcmitype/StillImage" /><dc:title></dc:title></cc:Work></rdf:RDF></metadata><defs
     id="defs81"><linearGradient
       id="white-7"><stop
         id="stop4220"
         offset="0"
         style="stop-color:#ffffff;stop-opacity:1;" /><stop
         style="stop-color:#ffffff;stop-opacity:1"
         offset="0.88588589"
         id="stop4238" /><stop
         id="stop4222"
         offset="1"
         style="stop-color:#ffffff;stop-opacity:0;" /></linearGradient><radialGradient
       gradientTransform="matrix(0.14925357,0,0,0.14925357,27.134335,334.75231)"
       gradientUnits="userSpaceOnUse"
       r="166.5"
       fy="211.70001"
       fx="212.5"
       cy="211.70001"
       cx="212.5"
       id="radialGradient4224"
       xlink:href="#white-7" /></defs><g
     transform="translate(-34,-341.20001)"
     id="layer1"><circle
       r="24.850721"
       cy="366.3493"
       cx="58.850723"
       id="path3416"
       style="color:#000000;clip-rule:nonzero;display:inline;overflow:visible;visibility:visible;opacity:1;isolation:auto;mix-blend-mode:normal;color-interpolation:sRGB;color-interpolation-filters:linearRGB;solid-color:#000000;solid-opacity:1;fill:url(#radialGradient4224);fill-opacity:1;fill-rule:nonzero;stroke:none;stroke-width:1.25;stroke-linecap:butt;stroke-linejoin:miter;stroke-miterlimit:4;stroke-dasharray:none;stroke-dashoffset:0;stroke-opacity:1;color-rendering:auto;image-rendering:auto;shape-rendering:auto;text-rendering:auto;enable-background:accumulate" /></g><g
     transform="matrix(0.13883085,0,0,0.13883085,-4.7202488,-4.3106269)"
     id="g3"><defs
       id="defs5"><rect
         height="181.561"
         width="248.72"
         y="132.65601"
         x="90.907997"
         id="SVGID_1_" /></defs><clipPath
       id="SVGID_2_"><use
         height="100%"
         width="100%"
         y="0"
         x="0"
         style="overflow:visible"
         id="use9"
         overflow="visible"
         xlink:href="#SVGID_1_" /></clipPath><path
       id="path11"
       d="m 277.539,272.354 26.678,0 0,-8.972 -17.523,0 0,-9.955 16.423,0 0,-8.791 -16.423,0 0,-6.104 17.22,0 0,-8.912 -26.374,0 0,42.734 z m -33.886,0 25.276,0 0,-8.548 -16.116,0 0,-34.185 -9.16,0 0,42.733 z m -30.584,-8.423 0,-9.769 6.9,0 c 2.688,0 4.883,2.198 4.883,4.884 0,2.685 -2.194,4.885 -4.883,4.885 l -6.9,0 z m 0,-25.886 6.596,0 c 2.195,0 3.968,1.771 3.968,3.969 0,2.199 -1.772,3.968 -3.968,3.968 l -6.596,0 0,-7.937 z m 19.906,3.906 c 0,-6.838 -5.494,-12.33 -12.334,-12.33 l -16.726,0 0,42.733 17.032,0 c 7.324,0 13.186,-6.043 13.186,-13.186 0,-4.333 -2.32,-7.814 -4.948,-9.523 1.713,-1.343 3.79,-4.396 3.79,-7.694 m -52.382,14.225 -5.983,0 2.932,-7.387 3.051,7.387 z m 3.113,8.182 3.298,7.996 9.705,0 -19.168,-43.526 -19.171,43.526 9.708,0 3.417,-7.996 12.211,0 z m -30.587,-3.602 c -2.076,2.015 -5.067,3.418 -8.666,3.418 -6.781,0 -12.273,-5.921 -12.273,-13.125 0,-7.203 5.493,-13.187 12.273,-13.187 3.599,0 6.59,1.403 8.666,3.418 l 0,-10.621 c -2.93,-1.223 -5.556,-1.773 -8.666,-1.773 -12.152,0 -21.859,9.893 -21.859,22.162 0,12.208 9.707,22.101 21.859,22.101 3.11,0 5.736,-0.55 8.666,-1.77 l 0,-10.623 z"
       clip-path="url(#SVGID_2_)" /><path
       id="path13"
       d="m 314.352,216.854 25.276,0 0,-8.549 -16.116,0 0,-34.189 -9.16,0 0,42.738 z m -42.796,-21.31 c 0,-7.203 5.496,-13.187 12.271,-13.187 6.716,0 12.333,5.984 12.333,13.187 0,7.204 -5.555,13.127 -12.27,13.127 -6.779,0 -12.334,-5.923 -12.334,-13.127 m -9.582,0 c 0,12.212 9.767,22.104 21.915,22.104 12.149,0 21.855,-9.892 21.855,-22.104 0,-12.271 -9.767,-22.162 -21.918,-22.162 -12.145,0 -21.852,9.891 -21.852,22.162 m -22.957,21.31 9.157,0 0,-33.825 9.708,0 0,-8.913 -28.572,0 0,8.913 9.707,0 0,33.825 z m -49.33,-8.975 0,8.976 c 11.784,0 16.666,-6.106 19.111,-13.619 l 4.027,-12.453 c 1.284,-4.03 3.723,-7.694 10.013,-7.694 l 0,-8.973 c -11.661,0 -16.605,6.044 -19.108,13.675 l -4.029,12.393 c -1.467,4.518 -3.727,7.695 -10.014,7.695 m -17.705,8.975 9.157,0 0,-42.738 -9.157,0 0,42.738 z m -19.047,-26.987 c 0,3.967 -3.295,7.266 -7.325,7.266 l -5.8,0 0,-14.594 5.8,0 c 4.029,0 7.325,3.298 7.325,7.328 m 9.341,0 c 0,-8.669 -7.081,-15.751 -15.813,-15.751 l -15.81,0 0,42.738 9.157,0 0,-11.542 5.619,0 c 4.639,0 7.691,3.727 7.691,8.246 l 0,3.296 9.157,0 0,-3.296 c 0,-4.46 -1.038,-8.733 -5.922,-12.4 3.114,-2.441 5.921,-5.554 5.921,-11.291 m -62.211,18.56 0,-9.769 6.899,0 c 2.686,0 4.883,2.198 4.883,4.884 0,2.686 -2.198,4.884 -4.883,4.884 l -6.899,0 z m 0,-25.888 6.593,0 c 2.198,0 3.968,1.773 3.968,3.971 0,2.198 -1.77,3.967 -3.968,3.967 l -6.593,0 0,-7.938 z m 19.905,3.908 c 0,-6.837 -5.496,-12.331 -12.336,-12.331 l -16.726,0 0,42.738 17.035,0 c 7.322,0 13.186,-6.045 13.186,-13.19 0,-4.335 -2.319,-7.814 -4.948,-9.525 1.714,-1.343 3.789,-4.394 3.789,-7.692"
       clip-path="url(#SVGID_2_)" /></g><path
     id="path15"
     d="m 17.056064,2.2173383 c 0,0 2.379005,0.043176 3.825345,0.5307504 1.032901,0.3480489 2.154793,0.8342345 3.310005,0.9316938 0.731777,0.06178 2.483684,0.211717 2.485072,0 C 26.677319,3.5762147 25.522802,3.1923474 24.563758,2.7047734 23.604992,2.2171995 21.88224,1.0307511 19.834624,1.209704 c -2.047338,0.1788142 -2.77856,1.0076343 -2.77856,1.0076343 z" /><path
     style="fill:#b1b3b6"
     id="path17"
     d="m 12.451461,4.3246518 c 0,0 2.336246,-0.451478 3.852556,-0.2746075 1.082464,0.1260585 2.280713,0.3687348 3.430927,0.2243507 C 20.463945,4.1830443 22.208771,3.9663293 22.16615,3.7586384 22.145603,3.657153 20.936664,3.5210988 19.897237,3.2432983 18.85781,2.9653589 16.926812,2.1623613 14.96069,2.7622494 12.994567,3.3622763 12.451461,4.3246518 12.451461,4.3246518 Z" /><path
     style="fill:#64696d"
     id="path19"
     d="m 8.3844114,7.3418626 c 0,0 2.1915836,-0.9265571 3.7116426,-1.0681646 1.085102,-0.1012077 2.307785,-0.1125918 3.402744,-0.4927107 0.694293,-0.240455 2.356098,-0.8147982 2.271134,-1.0088837 -0.04109,-0.095099 -1.251977,0.022768 -2.326389,-0.033319 C 14.369132,4.6825577 12.313602,4.2981351 10.515048,5.2929969 8.7156618,6.2874423 8.3844114,7.3418626 8.3844114,7.3418626 Z" /><path
     id="path21"
     d="m 5.0323406,11.137359 c 0,0 1.9512675,-1.3612364 3.4088526,-1.8152132 C 9.4817304,8.9976981 10.675398,8.7329477 11.667622,8.1338925 12.29722,7.754329 13.803673,6.8476247 13.680253,6.6756133 13.62,6.5912042 12.460346,6.9578564 11.397318,7.1258418 10.334707,7.2939659 8.2440534,7.3442227 6.6912303,8.6910207 5.1372967,10.037263 5.0323406,11.137359 5.0323406,11.137359 Z" /><path
     style="fill:#b1b3b6"
     id="path23"
     d="m 2.5408822,15.546071 c 0,0 1.6259868,-1.736635 2.95793,-2.483128 C 6.4491093,12.529555 7.5619774,12.022683 8.4082903,11.23107 8.945288,10.728919 10.230723,9.5292814 10.07426,9.3867021 9.9976258,9.3164537 8.9395959,9.9159253 7.9344606,10.300764 6.9297417,10.685881 4.8951757,11.169013 3.6556939,12.808744 2.4152402,14.448058 2.5408822,15.546071 2.5408822,15.546071 Z" /><path
     style="fill:#64696d"
     id="path25"
     d="m 1.0188796,20.375719 c 0,0 1.2299025,-2.036093 2.3781724,-3.043033 0.8184078,-0.719144 1.8023021,-1.445646 2.4657747,-2.395665 0.4207963,-0.602665 1.4294024,-2.043035 1.2465622,-2.149796 -0.089546,-0.05289 -0.9998598,0.753018 -1.9032321,1.33819 -0.9029559,0.585172 -2.792999,1.480076 -3.6651344,3.341242 -0.87324602,1.861167 -0.5221428,2.909062 -0.5221428,2.909062 z" /><path
     id="path27"
     d="m 0.53213864,25.416112 c 0,0 0.78036816,-2.246978 1.69484696,-3.470216 0.6512555,-0.873385 1.4629995,-1.78828 1.9150327,-2.855473 0.2864081,-0.6768 0.9738984,-2.295152 0.773149,-2.361652 -0.098709,-0.03332 -0.8218786,0.94405 -1.58406,1.70401 -0.7621813,0.759822 -2.42509719,2.027625 -2.89198533,4.029149 -0.46799879,2.001941 0.0930167,2.954182 0.0930167,2.954182 z" /><path
     style="fill:#b1b3b6"
     id="path29"
     d="m 1.1020393,30.447897 c 0,0 0.297098,-2.359986 0.93808,-3.74635 0.4559205,-0.989448 1.0599735,-2.052892 1.2808534,-3.19075 0.1393862,-0.721643 0.4761898,-2.44731 0.2658611,-2.470772 -0.1032902,-0.01194 -0.6078015,1.093987 -1.1958889,1.995693 -0.587671,0.901568 -1.95126761,2.486738 -1.99277803,4.54199 -0.0423434,2.055113 0.70387243,2.870189 0.70387243,2.870189 z" /><path
     style="fill:#64696d"
     id="path31"
     d="m 2.7040084,35.251583 c 0,0 -0.1992223,-2.369842 0.1402192,-3.859081 0.2407327,-1.062611 0.6108557,-2.228235 0.5907252,-3.387056 -0.013328,-0.734832 -0.042205,-2.492847 -0.2529498,-2.472439 -0.1031513,0.0099 -0.3674852,1.196306 -0.7556563,2.200469 -0.3877545,1.003886 -1.3924734,2.837842 -1.0066625,4.856442 0.3853945,2.019434 1.2843242,2.661665 1.2843242,2.661665 z" /><path
     id="path33"
     d="m 5.2680753,39.61823 c 0,0 -0.6867962,-2.276826 -0.6638891,-3.804104 0.014855,-1.089406 0.1352213,-2.306119 -0.1249477,-3.435925 -0.1656252,-0.715951 -0.5586554,-2.42954 -0.7606543,-2.365955 -0.098986,0.03124 -0.1112035,1.24684 -0.2826596,2.30959 -0.1710396,1.062195 -0.7731489,3.064968 0.023185,4.959871 0.7964726,1.895041 1.8089659,2.336523 1.8089659,2.336523 z" /><path
     style="fill:#b1b3b6"
     id="path35"
     d="m 8.6824812,43.358055 c 0,0 -1.1445215,-2.084962 -1.4389817,-3.584057 C 7.0317824,38.705278 6.8968388,37.490369 6.4082931,36.439142 6.0974508,35.773309 5.3574824,34.178698 5.173115,34.282683 c -0.090656,0.05095 0.1500762,1.242675 0.2029707,2.317919 0.052895,1.074829 -0.1203663,3.15868 1.0520602,4.847002 1.1724265,1.688461 2.2543353,1.910451 2.2543353,1.910451 z" /><path
     style="fill:#64696d"
     id="path37"
     d="m 12.798677,46.307516 c 0,0 -1.552129,-1.801885 -2.151184,-3.207409 C 10.218645,42.098304 9.8343607,40.937817 9.1384017,40.010843 8.6958089,39.424144 7.641111,38.018065 7.4822885,38.157729 c -0.078023,0.069 0.4048308,1.184505 0.6794382,2.225459 0.2750239,1.040537 0.5378307,3.114947 2.0349823,4.523248 1.49743,1.408716 2.601968,1.40108 2.601968,1.40108 z" /><path
     id="path39"
     d="m 17.43771,48.338334 c 0,0 -1.892542,-1.440509 -2.770092,-2.690958 -0.627377,-0.890739 -1.244341,-1.946548 -2.117726,-2.708729 -0.554629,-0.481882 -1.878104,-1.639037 -2.004162,-1.469108 -0.06206,0.08372 0.641815,1.074829 1.126196,2.036232 0.485214,0.960571 1.172704,2.935023 2.929747,4.002216 1.757043,1.067331 2.836037,0.830347 2.836037,0.830347 z" /><path
     style="fill:#b1b3b6"
     id="path41"
     d="m 22.397164,49.362212 c 0,0 -2.150351,-1.016242 -3.268356,-2.057057 -0.798277,-0.741634 -1.621405,-1.646256 -2.63376,-2.210742 -0.642509,-0.355963 -2.177423,-1.212966 -2.265441,-1.021101 -0.04304,0.09524 0.850894,0.918227 1.524223,1.758015 0.674163,0.839093 1.756627,2.628206 3.696788,3.307228 1.9403,0.679577 2.946546,0.223657 2.946546,0.223657 z" /><path
     style="fill:#64696d"
     id="path43"
     d="m 27.461019,49.334723 c 0,0 -2.314588,-0.547965 -3.62404,-1.334164 -0.935026,-0.55935 -1.927667,-1.274051 -3.035259,-1.61613 -0.702345,-0.214772 -2.38206,-0.734693 -2.428152,-0.528668 -0.02249,0.102041 1.023045,0.722198 1.85603,1.403857 0.833679,0.680549 2.263915,2.206161 4.302785,2.467302 2.038869,0.262668 2.928636,-0.392197 2.928636,-0.392197 z" /><path
     id="path45"
     d="m 32.408812,48.256979 c 0,0 -2.377756,-0.05553 -3.822013,-0.552963 -1.030681,-0.353463 -2.149935,-0.846313 -3.304452,-0.95113 -0.731639,-0.06442 -2.482573,-0.224351 -2.484934,-0.01333 -6.94e-4,0.104262 1.150353,0.494377 2.107036,0.98792 0.956822,0.49285 2.672216,1.688461 4.720943,1.520892 2.048727,-0.166458 2.78342,-0.991391 2.78342,-0.991391 z" /><path
     style="fill:#b1b3b6"
     id="path47"
     d="m 37.025493,46.17535 c 0,0 -2.337773,0.439121 -3.853667,0.252116 -1.08177,-0.13175 -2.279186,-0.381646 -3.430232,-0.24462 -0.729001,0.08927 -2.474938,0.295988 -2.433011,0.502846 0.02055,0.102318 1.227681,0.244897 2.265858,0.529084 1.038316,0.28377 2.964316,1.09718 4.933771,0.507982 1.969593,-0.587949 2.517281,-1.547408 2.517281,-1.547408 z" /><path
     style="fill:#64696d"
     id="path49"
     d="m 41.109619,43.180907 c 0,0 -2.196027,0.914895 -3.717613,1.046368 -1.085518,0.09593 -2.308896,0.09982 -3.406215,0.472997 -0.694709,0.238372 -2.359569,0.802859 -2.275854,0.996805 0.04123,0.09593 1.251699,-0.01527 2.326528,0.0472 1.074412,0.06206 3.127303,0.45828 4.931827,-0.527141 1.804245,-0.983755 2.141327,-2.036232 2.141327,-2.036232 z" /><path
     id="path51"
     d="m 44.483069,39.404153 c 0,0 -1.958347,1.351101 -3.419542,1.795221 -1.042065,0.319172 -2.237953,0.576565 -3.234065,1.16965 -0.629875,0.377481 -2.141188,1.275161 -2.019017,1.447312 0.06025,0.08538 1.221156,-0.274608 2.285711,-0.436901 1.063722,-0.162293 3.154098,-0.200611 4.714835,-1.538662 1.560875,-1.337358 1.672078,-2.43662 1.672078,-2.43662 z" /><path
     style="fill:#b2b2b2"
     id="path53"
     d="m 46.999101,35.009323 c 0,0 -1.635428,1.728306 -2.97223,2.465775 -0.953351,0.528807 -2.06969,1.028737 -2.921001,1.815213 -0.53783,0.500208 -1.82979,1.692348 -1.674577,1.835205 0.07691,0.0708 1.13758,-0.522281 2.145075,-0.901567 1.00694,-0.379703 3.044005,-0.851311 4.293205,-2.483684 1.2492,-1.632512 1.129528,-2.730942 1.129528,-2.730942 z" /><path
     style="fill:#64696d"
     id="path55"
     d="m 48.548175,30.188144 c 0,0 -1.241008,2.029985 -2.395803,3.028734 -0.822712,0.715257 -1.811049,1.435928 -2.48063,2.38206 -0.421907,0.600999 -1.438426,2.035399 -1.257252,2.142854 0.08982,0.05331 1.004719,-0.74691 1.911284,-1.327084 0.90601,-0.580452 2.801051,-1.464804 3.684154,-3.320417 0.883797,-1.856447 0.538247,-2.906147 0.538247,-2.906147 z" /><path
     id="path57"
     d="m 49.063099,25.150251 c 0,0 -0.792585,2.243784 -1.714977,3.460359 -0.656393,0.87033 -1.473551,1.780089 -1.932248,2.84506 -0.287935,0.675273 -0.985005,2.28946 -0.78495,2.356931 0.09871,0.03346 0.82771,-0.939329 1.593917,-1.694847 0.766069,-0.755656 2.436204,-2.014158 2.914893,-4.012905 0.479105,-1.999303 -0.07663,-2.954598 -0.07663,-2.954598 z" /><path
     style="fill:#b1b3b6"
     id="path59"
     d="m 48.521103,20.115272 c 0,0 -0.309592,2.359569 -0.959321,3.741214 -0.461612,0.987226 -1.07219,2.0472 -1.299873,3.184224 -0.14133,0.720255 -0.48799,2.443701 -0.278495,2.468413 0.103568,0.01222 0.614466,-1.090517 1.207412,-1.98903 0.592253,-0.898097 1.964873,-2.475631 2.018601,-4.530467 0.05373,-2.055252 -0.688324,-2.874354 -0.688324,-2.874354 z" /><path
     style="fill:#64696d"
     id="path61"
     d="m 46.94579,15.302423 c 0,0 0.187144,2.372342 -0.161877,3.858943 -0.246425,1.0615 -0.623767,2.225042 -0.610439,3.384418 0.01097,0.733999 0.02971,2.491875 0.239622,2.472716 0.103984,-0.0097 0.374704,-1.194223 0.768151,-2.196304 0.393169,-1.001526 1.408578,-2.82965 1.034845,-4.85075 -0.374427,-2.021793 -1.270302,-2.669023 -1.270302,-2.669023 z" /><path
     id="path63"
     d="m 44.406157,10.921477 c 0,0 0.675273,2.281824 0.642509,3.808408 -0.02082,1.089683 -0.148549,2.306258 0.105095,3.437452 0.163127,0.715673 0.5463,2.431622 0.747743,2.369148 0.09982,-0.0311 0.118978,-1.245868 0.295571,-2.307924 0.176732,-1.061084 0.790642,-3.060248 0.0057,-4.96001 -0.785644,-1.8999 -1.79661,-2.347074 -1.79661,-2.347074 z" /><path
     style="fill:#b1b3b6"
     id="path65"
     d="m 41.012576,7.1630484 c 0,0 1.134248,2.0917644 1.418712,3.5921096 0.206025,1.070247 0.333333,2.286821 0.816326,3.340825 0.308204,0.666111 1.03901,2.265303 1.223238,2.162291 0.09107,-0.05123 -0.142301,-1.243369 -0.190059,-2.319031 -0.0472,-1.074828 0.138692,-3.157846 -1.023739,-4.8531097 C 42.094207,7.3905922 41.012576,7.1630484 41.012576,7.1630484 Z" /><path
     style="fill:#64696d"
     id="path67"
     d="m 36.912762,4.1905412 c 0,0 1.543799,1.8109095 2.133275,3.2193485 0.423989,1.0041635 0.801054,2.1679825 1.491876,3.0985653 0.439539,0.587671 1.486601,2.000414 1.645562,1.861444 0.0783,-0.069 -0.397195,-1.186865 -0.66736,-2.229068 C 41.247061,9.0993223 40.99661,7.0229681 39.507372,5.6059217 38.018133,4.1887364 36.912762,4.1905412 36.912762,4.1905412 Z" /><path
     id="path69"
     d="m 32.28553,2.133901 c 0,0 1.885739,1.45106 2.754959,2.7065074 0.623073,0.8943483 1.233235,1.9544606 2.102455,2.7213622 0.551991,0.4836867 1.869357,1.6484775 1.995832,1.4795204 C 39.20125,8.9572983 38.503903,7.9625753 38.023548,6.9990892 37.544443,6.0361584 36.868475,4.0569859 35.117402,2.9797973 33.366051,1.9026088 32.28553,2.133901 32.28553,2.133901 Z" /><path
     style="fill:#b1b3b6"
     id="path71"
     d="m 27.332184,1.0822573 c 0,0 2.145492,1.0281813 3.256555,2.0757989 0.794807,0.7455216 1.611827,1.6561131 2.621127,2.2258749 0.640288,0.3586001 2.171175,1.2244881 2.259333,1.0329015 0.04373,-0.095099 -0.844786,-0.9235028 -1.514367,-1.766206 C 33.286084,3.808201 32.213893,2.0122852 30.277897,1.3218794 28.34079,0.63175122 27.332184,1.0822573 27.332184,1.0822573 Z" /><path
     style="fill:#64696d"
     id="path73"
     d="m 22.268051,1.0814243 c 0,0 2.312228,0.5607378 3.616822,1.3548503 0.931971,0.5643474 1.920308,1.2854348 3.025679,1.6333449 0.700818,0.2178256 2.378173,0.7473264 2.424681,0.5414403 C 31.358418,4.5090191 30.317186,3.8831697 29.487117,3.1977618 28.65788,2.5124927 27.23653,0.97827302 25.199604,0.70463742 23.161289,0.43155714 22.268051,1.0814243 22.268051,1.0814243 Z" /><path
     id="path75"
     d="m 20.235151,18.009208 1.184089,0 0,-2.891569 0.866582,0 0,-1.141189 -2.917392,0 0,1.141189 0.866721,0 0,2.891569 0,0 z m 3.097455,0 1.18395,0 0,-1.48424 0.943911,0 0,1.48424 1.18381,0 0,-4.032758 -1.18381,0 0,1.467164 -0.943911,0 0,-1.467164 -1.18395,0 0,4.032758 0,0 z m 4.59905,0 2.599885,0 0,-1.09829 -1.416075,0 0,-0.463279 1.279049,0 0,-1.029708 -1.279049,0 0,-0.34319 1.390253,0 0,-1.098291 -2.573924,0 0,4.032758 -1.39e-4,0 z" /></svg>