<?xml version="1.0" encoding="UTF-8" standalone="no"?>
<svg width="38px" height="38px" viewBox="0 0 38 38" version="1.1" xmlns="http://www.w3.org/2000/svg" xmlns:xlink="http://www.w3.org/1999/xlink">
    <!-- Generator: Sketch 3.8.1 (29687) - http://www.bohemiancoding.com/sketch -->
    <title>Slice 1</title>
    <desc>Created with Sketch.</desc>
    <defs></defs>
    <g id="Page-1" stroke="none" stroke-width="1" fill="none" fill-rule="evenodd">
        <g id="MakespaceLogomark" fill="#ffffff">
            <polygon id="Shape" points="-1.77635684e-15 36 -1.77635684e-15 38 10 38 10 18.1 12.5 21.9 18.3 12.8 10 0 10 0 -1.77635684e-15 0 -1.77635684e-15 2 2 2 2 3 -1.77635684e-15 3 -1.77635684e-15 5 4 5 4 6 -1.77635684e-15 6 -1.77635684e-15 8 2 8 2 9 -1.77635684e-15 9 -1.77635684e-15 11 2 11 2 12 -1.77635684e-15 12 -1.77635684e-15 14 4 14 4 15 -1.77635684e-15 15 -1.77635684e-15 17 2 17 2 18 -1.77635684e-15 18 -1.77635684e-15 20 2 20 2 21 -1.77635684e-15 21 -1.77635684e-15 23 4 23 4 24 -1.77635684e-15 24 -1.77635684e-15 26 2 26 2 27 -1.77635684e-15 27 -1.77635684e-15 29 2 29 2 30 -1.77635684e-15 30 -1.77635684e-15 32 4 32 4 33 -1.77635684e-15 33 -1.77635684e-15 35 2 35 2 36"></polygon>
            <path d="M38,38 L38,0 L28,0 L28,0 L13.2,23 L19,32 L28,18 L28,18 L28,38 L38,38 L38,38 Z M32,5 C32,4.4 32.4,4 33,4 C33.6,4 34,4.4 34,5 L34,33 C34,33.6 33.6,34 33,34 C32.7,34 32.5,33.9 32.3,33.7 C32.1,33.5 32,33.3 32,33 L32,5 L32,5 Z M19,24 C18.4,24 18,23.6 18,23 C18,22.4 18.4,22 19,22 C19.6,22 20,22.4 20,23 C20,23.6 19.5,24 19,24 L19,24 Z" id="Shape"></path>
        </g>
    </g>
</svg>