<svg width="591" height="623" fill="none" xmlns="http://www.w3.org/2000/svg"><mask id="a" fill="#fff"><path d="M564.8 621.7c.8-.5 2.2-6.7 3.1-14l2.6-20.6c.6-4 .6-10 .1-13.2-2.8-17.5-.6-67.7 4.9-109.5 3.3-24.9 3.2-24.3 4.8-49.8l3.4-54.6c1.1-17 2.5-55.1 3-84.9.5-29.7 1-56 1.3-58.3a1181 1181 0 0 0 2.6-124.1c-.5-35.6-.9-70.8-.8-78.2L590 1l-5.1-.7c-2.8-.4-14.3-.4-25.7 0A5479.8 5479.8 0 0 1 479 3.2c-76.3 2.4-111.8 3-189 3.2-44.1 0-85.5.3-91.9.5-34.3 1.3-49.7 1.7-104.8 2.6-67.4 1.2-87 1.9-90 3.3C-1.2 14.9-1 107 4 211c3.7 76.5 5.2 101 7.7 125.1 1.1 10.9 3.6 61.3 3.8 78l1 103.6c.9 78.8 1.5 99.5 2.8 99.5l18.7-1.7c12.3-1.3 22.5-1.6 37.4-1.1 54.6 1.6 133.8 3 179.6 3.2 27.9 0 51.5.5 52.5 1s22.8.7 48.6.5l84.6-.3c41.3 0 116 2 117.4 3 1.2 1 4.9.8 6.8-.1z"/></mask><path d="M564.8 621.7c.8-.5 2.2-6.7 3.1-14l2.6-20.6c.6-4 .6-10 .1-13.2-2.8-17.5-.6-67.7 4.9-109.5 3.3-24.9 3.2-24.3 4.8-49.8l3.4-54.6c1.1-17 2.5-55.1 3-84.9.5-29.7 1-56 1.3-58.3a1181 1181 0 0 0 2.6-124.1c-.5-35.6-.9-70.8-.8-78.2L590 1l-5.1-.7c-2.8-.4-14.3-.4-25.7 0A5479.8 5479.8 0 0 1 479 3.2c-76.3 2.4-111.8 3-189 3.2-44.1 0-85.5.3-91.9.5-34.3 1.3-49.7 1.7-104.8 2.6-67.4 1.2-87 1.9-90 3.3C-1.2 14.9-1 107 4 211c3.7 76.5 5.2 101 7.7 125.1 1.1 10.9 3.6 61.3 3.8 78l1 103.6c.9 78.8 1.5 99.5 2.8 99.5l18.7-1.7c12.3-1.3 22.5-1.6 37.4-1.1 54.6 1.6 133.8 3 179.6 3.2 27.9 0 51.5.5 52.5 1s22.8.7 48.6.5l84.6-.3c41.3 0 116 2 117.4 3 1.2 1 4.9.8 6.8-.1z" fill="#F68820" fill-opacity=".1" stroke="#F68820" stroke-width="10" mask="url(#a)"/></svg>