<svg width="229" height="229" fill="none" xmlns="http://www.w3.org/2000/svg"><path d="M156.35 153.11h17.25v-5.8h-11.33v-6.44h10.62v-5.69h-10.62v-3.95h11.14v-5.76h-17.06v27.64zm-21.92 0h16.35v-5.53h-10.42v-22.11h-5.93v27.64zm-19.78-5.45v-6.32h4.46a3.17 3.17 0 0 1 3.16 3.16 3.17 3.17 0 0 1-3.16 3.16h-4.46zm0-16.74h4.27a2.56 2.56 0 1 1 0 5.13h-4.27v-5.13zm12.87 2.53a7.95 7.95 0 0 0-7.97-7.98h-10.82v27.64h11.01c4.74 0 8.53-3.9 8.53-8.53a7.4 7.4 0 0 0-3.2-6.16 6.85 6.85 0 0 0 2.45-4.97zm-33.88 9.2h-3.87l1.9-4.78 1.97 4.78zm2.02 5.29l2.13 5.17h6.28l-12.4-28.15-12.4 28.15h6.28l2.2-5.17h7.9zm-19.79-2.33a7.96 7.96 0 0 1-5.6 2.2c-4.39 0-7.94-3.82-7.94-8.48s3.55-8.53 7.94-8.53c2.32 0 4.26.9 5.6 2.21v-6.87a14.2 14.2 0 0 0-19.74 13.19 14.18 14.18 0 0 0 19.74 13.15v-6.87zM180.16 117.21h16.35v-5.53h-10.42V89.57h-5.93v27.64zm-27.68-13.78c0-4.66 3.55-8.53 7.94-8.53 4.34 0 7.97 3.87 7.97 8.53 0 4.66-3.59 8.49-7.93 8.49-4.39 0-7.98-3.83-7.98-8.5zm-6.2 0c0 7.9 6.32 14.3 14.18 14.3 7.85 0 14.13-6.4 14.13-14.3 0-7.94-6.31-14.34-14.18-14.34a14.2 14.2 0 0 0-14.13 14.34zm-14.85 13.78h5.92V95.33h6.28v-5.76h-18.48v5.76h6.28v21.88zm-31.9-5.8v5.8c7.62 0 10.77-3.95 12.36-8.8l2.6-8.06c.83-2.6 2.4-4.98 6.48-4.98v-5.8c-7.55 0-10.74 3.9-12.36 8.84l-2.6 8.02c-.96 2.92-2.42 4.98-6.49 4.98zm-11.46 5.8H94V89.57h-5.93v27.64zM75.75 99.76c0 2.56-2.13 4.7-4.74 4.7h-3.75v-9.44h3.75c2.61 0 4.74 2.13 4.74 4.74zm6.04 0c0-5.61-4.58-10.2-10.22-10.2H61.34v27.65h5.92v-7.46h3.64c3 0 4.97 2.4 4.97 5.33v2.13h5.92v-2.13c0-2.89-.67-5.65-3.83-8.02 2.02-1.58 3.83-3.6 3.83-7.3zm-40.24 12v-6.32h4.47a3.17 3.17 0 0 1 3.16 3.16 3.17 3.17 0 0 1-3.16 3.16h-4.47zm0-16.74h4.27a2.56 2.56 0 1 1 0 5.13h-4.27v-5.13zm12.88 2.52a7.96 7.96 0 0 0-7.98-7.97H35.63v27.64h11.02a8.57 8.57 0 0 0 8.53-8.53 7.4 7.4 0 0 0-3.2-6.16 6.85 6.85 0 0 0 2.45-4.98zM78.29 7.36s11.08.2 17.82 2.47c4.81 1.62 10.04 3.89 15.42 4.34 3.41.3 11.57.99 11.58 0 0-.48-5.38-2.27-9.84-4.54-4.47-2.27-12.5-7.8-22.04-6.96C81.7 3.5 78.3 7.36 78.3 7.36zM56.83 17.18s10.89-2.1 17.95-1.28c5.05.59 10.63 1.72 15.99 1.04 3.4-.42 11.53-1.43 11.33-2.4-.1-.47-5.73-1.1-10.57-2.4-4.85-1.3-13.84-5.04-23-2.24s-11.7 7.28-11.7 7.28zM37.89 31.24s10.2-4.32 17.29-4.98c5.05-.47 10.75-.53 15.85-2.3 3.24-1.12 10.98-3.8 10.58-4.7-.19-.44-5.83.1-10.84-.15-5-.26-14.58-2.06-22.96 2.58-8.38 4.63-9.92 9.55-9.92 9.55zM20.27 48.92s9.09-6.34 15.88-8.46c4.85-1.51 10.41-2.74 15.03-5.53 2.94-1.77 9.95-6 9.38-6.8-.28-.4-5.68 1.32-10.64 2.1-4.95.78-14.69 1.02-21.92 7.3-7.24 6.26-7.73 11.39-7.73 11.39zM10.66 69.46s7.58-8.1 13.78-11.57c4.43-2.48 9.61-4.85 13.56-8.53 2.5-2.34 8.49-7.93 7.76-8.6-.36-.32-5.29 2.47-9.97 4.26-4.68 1.8-14.16 4.05-19.94 11.69-5.77 7.63-5.19 12.75-5.19 12.75zM3.57 91.96s5.73-9.49 11.08-14.18c3.81-3.35 8.4-6.73 11.49-11.16 1.96-2.8 6.66-9.52 5.8-10.01-.41-.25-4.65 3.5-8.86 6.23-4.2 2.73-13.01 6.9-17.08 15.57-4.07 8.67-2.43 13.55-2.43 13.55zM1.3 115.44s3.64-10.46 7.9-16.16c3.03-4.07 6.81-8.34 8.92-13.3 1.33-3.16 4.54-10.7 3.6-11.01-.46-.16-3.83 4.4-7.38 7.94S3.04 92.36.87 101.68c-2.18 9.33.43 13.76.43 13.76zM3.96 138.89s1.38-11 4.37-17.46c2.12-4.6 4.94-9.56 5.96-14.86.65-3.36 2.22-11.4 1.24-11.51-.48-.06-2.83 5.1-5.57 9.3-2.74 4.2-9.09 11.58-9.28 21.16-.2 9.57 3.28 13.37 3.28 13.37zM11.42 161.27s-.93-11.04.65-17.98c1.13-4.95 2.85-10.38 2.76-15.78-.07-3.43-.2-11.62-1.18-11.52-.48.05-1.71 5.57-3.52 10.25s-6.5 13.22-4.7 22.63c1.8 9.4 6 12.4 6 12.4zM23.37 181.61s-3.2-10.6-3.1-17.72c.07-5.08.63-10.74-.58-16-.77-3.34-2.6-11.33-3.54-11.03-.46.14-.52 5.8-1.32 10.76-.8 4.95-3.6 14.28.1 23.1 3.72 8.84 8.44 10.9 8.44 10.9zM39.27 199.04s-5.33-9.72-6.7-16.7c-.99-4.98-1.61-10.64-3.9-15.54-1.44-3.1-4.89-10.53-5.75-10.05-.42.24.7 5.8.95 10.8.25 5.01-.56 14.72 4.9 22.59 5.46 7.86 10.5 8.9 10.5 8.9zM58.45 212.78s-7.23-8.4-10.02-14.94c-2-4.67-3.79-10.08-7.03-14.4-2.06-2.73-6.98-9.28-7.72-8.63-.36.32 1.89 5.52 3.17 10.37 1.28 4.84 2.5 14.51 9.48 21.07 6.98 6.56 12.12 6.53 12.12 6.53zM80.07 222.24s-8.82-6.71-12.91-12.54c-2.92-4.15-5.8-9.07-9.87-12.62-2.58-2.24-8.75-7.63-9.33-6.84-.3.39 2.99 5 5.24 9.49 2.26 4.47 5.47 13.67 13.65 18.64 8.19 4.97 13.22 3.87 13.22 3.87zM103.17 227.01s-10.02-4.73-15.23-9.58c-3.71-3.46-7.55-7.67-12.27-10.3-2.99-1.66-10.14-5.65-10.55-4.76-.2.44 3.96 4.28 7.1 8.19 3.14 3.91 8.18 12.25 17.22 15.4 9.04 3.17 13.73 1.05 13.73 1.05zM126.77 226.88s-10.79-2.55-16.89-6.21c-4.36-2.6-8.98-5.94-14.14-7.53-3.27-1-11.1-3.42-11.31-2.47-.1.48 4.76 3.37 8.64 6.55 3.89 3.17 10.55 10.27 20.05 11.49 9.5 1.22 13.64-1.83 13.64-1.83zM149.82 221.86s-11.08-.26-17.81-2.58c-4.8-1.64-10.02-3.94-15.4-4.43-3.4-.3-11.56-1.04-11.57-.06 0 .49 5.36 2.3 9.81 4.6 4.46 2.3 12.45 7.87 22 7.1 9.54-.78 12.97-4.63 12.97-4.63zM171.33 212.16s-10.9 2.05-17.96 1.18c-5.04-.62-10.62-1.78-15.98-1.14-3.4.41-11.53 1.38-11.33 2.34.1.48 5.72 1.14 10.55 2.47 4.84 1.32 13.81 5.1 22.99 2.36 9.18-2.74 11.73-7.2 11.73-7.2zM190.35 198.21s-10.23 4.26-17.32 4.88c-5.05.44-10.75.46-15.87 2.2-3.23 1.11-10.99 3.74-10.6 4.65.2.44 5.83-.08 10.84.22 5 .28 14.57 2.13 22.98-2.46 8.4-4.58 9.97-9.49 9.97-9.49zM206.07 180.62s-9.12 6.3-15.93 8.36c-4.85 1.49-10.43 2.69-15.07 5.45-2.93 1.76-9.97 5.94-9.4 6.74.28.4 5.69-1.28 10.65-2.03 4.95-.76 14.69-.94 21.96-7.17 7.27-6.23 7.8-11.35 7.8-11.35zM217.8 160.14s-7.63 8.05-13.85 11.49c-4.44 2.46-9.65 4.8-13.61 8.46-2.5 2.33-8.53 7.88-7.8 8.55.35.33 5.3-2.44 9.99-4.2 4.7-1.77 14.18-3.97 20-11.58 5.82-7.6 5.26-12.72 5.26-12.72zM225.01 137.68s-5.78 9.46-11.16 14.1c-3.83 3.34-8.44 6.7-11.56 11.1-1.96 2.8-6.7 9.49-5.86 10 .42.24 4.69-3.49 8.9-6.2 4.23-2.7 13.06-6.82 17.17-15.46 4.12-8.65 2.51-13.54 2.51-13.54zM227.41 114.2s-3.7 10.46-7.99 16.13c-3.06 4.05-6.86 8.3-9 13.25-1.34 3.15-4.6 10.67-3.66 10.98.46.16 3.86-4.37 7.43-7.9 3.57-3.51 11.35-9.38 13.58-18.69 2.23-9.31-.36-13.76-.36-13.76zM224.88 90.75s-1.44 11-4.46 17.43c-2.16 4.6-5 9.54-6.06 14.83-.66 3.36-2.27 11.39-1.3 11.5.48.06 2.87-5.08 5.63-9.26 2.76-4.19 9.15-11.54 9.4-21.11.25-9.58-3.2-13.4-3.2-13.4zM217.55 68.32s.87 11.06-.76 17.98c-1.15 4.95-2.9 10.37-2.84 15.77.05 3.42.14 11.61 1.11 11.52.49-.04 1.75-5.56 3.58-10.23 1.84-4.67 6.57-13.18 4.82-22.6-1.74-9.42-5.91-12.44-5.91-12.44zM205.71 47.91s3.15 10.63 3 17.75c-.1 5.07-.7 10.74.49 16.01.76 3.34 2.54 11.33 3.48 11.04.47-.14.56-5.8 1.38-10.75.82-4.95 3.68-14.26.02-23.11s-8.37-10.94-8.37-10.94zM189.9 30.4s5.29 9.75 6.61 16.74c.96 4.98 1.56 10.65 3.8 15.56 1.44 3.1 4.85 10.56 5.7 10.08.43-.24-.66-5.8-.88-10.8-.22-5.01.65-14.72-4.77-22.62S189.9 30.4 189.9 30.4zM170.8 16.55s7.2 8.44 9.94 15c1.98 4.68 3.73 10.1 6.95 14.44 2.05 2.74 6.93 9.32 7.67 8.67.36-.32-1.85-5.53-3.11-10.38-1.25-4.86-2.42-14.53-9.36-21.13-6.94-6.6-12.09-6.6-12.09-6.6zM149.24 6.97s8.79 6.76 12.84 12.61c2.9 4.17 5.74 9.1 9.8 12.68 2.57 2.25 8.7 7.68 9.3 6.9.28-.4-2.97-5.03-5.2-9.52-2.24-4.49-5.38-13.7-13.54-18.73-8.16-5.02-13.2-3.94-13.2-3.94zM126.17 2.07s10 4.8 15.17 9.67c3.7 3.48 7.5 7.72 12.2 10.37 3 1.67 10.13 5.7 10.54 4.82.2-.45-3.94-4.3-7.06-8.23-3.12-3.93-8.11-12.3-17.13-15.51-9.03-3.22-13.72-1.12-13.72-1.12zM102.57 2.07s10.77 2.61 16.85 6.31c4.34 2.63 8.95 5.99 14.1 7.61 3.26 1.01 11.08 3.48 11.3 2.52.1-.47-4.75-3.39-8.61-6.58-3.87-3.2-10.5-10.34-19.98-11.62-9.5-1.27-13.66 1.76-13.66 1.76zM93.1 80.94h5.52V67.46h4.03v-5.31H89.06v5.31h4.04v13.48zm14.43 0h5.52v-6.92h4.4v6.92h5.51v-18.8h-5.52v6.84h-4.4v-6.83h-5.5v18.79zm21.43 0h12.11v-5.12h-6.6v-2.16h5.96v-4.8h-5.96v-1.6h6.48v-5.11h-12v18.79z" fill="#fff"/></svg>